<svg width="279" height="110" viewBox="0 0 279 110" fill="none" xmlns="http://www.w3.org/2000/svg">
<g clip-path="url(#clip0_13_3)">
<path d="M45 110C69.8528 110 90 85.3757 90 55C90 24.6243 69.8528 0 45 0C20.1472 0 0 24.6243 0 55C0 85.3757 20.1472 110 45 110Z" fill="#E7E7E7"/>
<path d="M45 90C58.8071 90 70 74.33 70 55C70 35.67 58.8071 20 45 20C31.1929 20 20 35.67 20 55C20 74.33 31.1929 90 45 90Z" fill="black"/>
<path d="M35.1697 38.7665C35.6202 38.507 36.0789 38.514 36.4778 38.7197C36.8872 38.9309 37.2715 39.3747 37.4802 40.0483C37.6889 40.7221 37.6695 41.4612 37.4644 42.1049C37.2839 42.671 36.9711 43.1318 36.5843 43.4177L36.414 43.5295L16.5171 54.9926L15.8619 55.3701L16.4659 55.825L34.8094 69.6384C35.2381 69.9612 35.5519 70.5135 35.6773 71.1809C35.8021 71.845 35.7308 72.5808 35.4412 73.224C35.1515 73.867 34.7158 74.2604 34.2836 74.4199C33.9152 74.5557 33.5203 74.5346 33.149 74.3179L32.9911 74.2133L10.6469 57.3929L10.645 57.3918L10.536 57.3029C10.0053 56.8343 9.66594 55.9698 9.72598 54.993C9.78601 54.0162 10.2287 53.1998 10.8128 52.7997L10.9318 52.7248L10.9339 52.724L35.1697 38.7665Z" fill="#00A2FF" stroke="#E7E7E7"/>
<path fill-rule="evenodd" clip-rule="evenodd" d="M51.335 41.6004C51.4794 41.6691 51.6097 41.769 51.7186 41.8942C51.8276 42.0195 51.9129 42.1676 51.9697 42.3303C52.0266 42.4929 52.0539 42.6668 52.05 42.842C52.0461 43.0173 52.0111 43.1903 51.9471 43.3514L40.5665 72.0394C40.4375 72.3645 40.1981 72.621 39.901 72.7525C39.6038 72.8841 39.2734 72.8799 38.9822 72.7408C38.691 72.6018 38.4631 72.3393 38.3484 72.0111C38.2338 71.6829 38.2418 71.3158 38.3709 70.9907L49.7514 42.3028C49.8152 42.1418 49.9068 41.9959 50.0209 41.8735C50.135 41.7511 50.2694 41.6545 50.4164 41.5893C50.5635 41.5241 50.7203 41.4915 50.8779 41.4934C51.0355 41.4953 51.1908 41.5317 51.335 41.6004Z" fill="#00A2FF"/>
<path d="M57.3271 40.1283C56.9117 39.8156 56.4556 39.7664 56.0346 39.9217C55.6024 40.0812 55.1667 40.4746 54.877 41.1176C54.5874 41.7607 54.5162 42.4966 54.6409 43.1606C54.7507 43.7446 55.0047 44.2402 55.3536 44.5713L55.5089 44.7031L73.8523 58.5165L74.4564 58.9714L73.8011 59.3489L53.9042 70.812C53.4391 71.0799 53.0601 71.5896 52.8539 72.2366C52.6487 72.8804 52.6293 73.6194 52.838 74.2932C53.0467 74.9669 53.431 75.4106 53.8404 75.6219C54.1894 75.8018 54.5839 75.8293 54.9789 75.6596L55.1485 75.5751L79.3844 61.6176L79.3864 61.6167L79.5054 61.5419C80.0895 61.1418 80.5322 60.3254 80.5922 59.3486C80.6523 58.3717 80.3129 57.5073 79.7822 57.0387L79.6732 56.9498L79.6713 56.9487L57.3271 40.1283Z" fill="#00A2FF" stroke="#E7E7E7"/>
<path d="M106.301 65V61.3496L116.828 48.3477H107.49V44.957H122.16V48.1016L111.182 61.623H122.584V65H106.301ZM133.535 60.3789L137.363 61.0215C136.871 62.4251 136.092 63.4961 135.025 64.2344C133.968 64.9635 132.642 65.3281 131.047 65.3281C128.522 65.3281 126.654 64.5033 125.441 62.8535C124.484 61.5319 124.006 59.8639 124.006 57.8496C124.006 55.4434 124.635 53.5612 125.893 52.2031C127.15 50.8359 128.741 50.1523 130.664 50.1523C132.824 50.1523 134.529 50.8678 135.777 52.2988C137.026 53.7207 137.623 55.9036 137.568 58.8477H127.943C127.971 59.987 128.281 60.8757 128.873 61.5137C129.465 62.1426 130.204 62.457 131.088 62.457C131.689 62.457 132.195 62.293 132.605 61.9648C133.016 61.6367 133.326 61.1081 133.535 60.3789ZM133.754 56.4961C133.727 55.3841 133.439 54.541 132.893 53.9668C132.346 53.3835 131.68 53.0918 130.896 53.0918C130.058 53.0918 129.365 53.3971 128.818 54.0078C128.271 54.6185 128.003 55.4479 128.012 56.4961H133.754ZM144.391 65H140.549V50.4805H144.117V52.5449C144.728 51.5697 145.275 50.9271 145.758 50.6172C146.25 50.3073 146.806 50.1523 147.426 50.1523C148.301 50.1523 149.144 50.3939 149.955 50.877L148.766 54.2266C148.118 53.8073 147.517 53.5977 146.961 53.5977C146.423 53.5977 145.967 53.748 145.594 54.0488C145.22 54.3405 144.924 54.8737 144.705 55.6484C144.495 56.4232 144.391 58.0456 144.391 60.5156V65ZM150.734 57.5352C150.734 56.2591 151.049 55.0241 151.678 53.8301C152.307 52.6361 153.195 51.7246 154.344 51.0957C155.501 50.4668 156.791 50.1523 158.213 50.1523C160.41 50.1523 162.21 50.8678 163.613 52.2988C165.017 53.7207 165.719 55.5208 165.719 57.6992C165.719 59.8958 165.008 61.7188 163.586 63.168C162.173 64.6081 160.391 65.3281 158.24 65.3281C156.91 65.3281 155.638 65.0273 154.426 64.4258C153.223 63.8242 152.307 62.9447 151.678 61.7871C151.049 60.6204 150.734 59.2031 150.734 57.5352ZM154.672 57.7402C154.672 59.1803 155.014 60.2832 155.697 61.0488C156.381 61.8145 157.224 62.1973 158.227 62.1973C159.229 62.1973 160.068 61.8145 160.742 61.0488C161.426 60.2832 161.768 59.1712 161.768 57.7129C161.768 56.291 161.426 55.1973 160.742 54.4316C160.068 53.666 159.229 53.2832 158.227 53.2832C157.224 53.2832 156.381 53.666 155.697 54.4316C155.014 55.1973 154.672 56.3001 154.672 57.7402ZM181.4 54.7734L177.613 55.457C177.486 54.7005 177.194 54.1309 176.738 53.748C176.292 53.3652 175.708 53.1738 174.988 53.1738C174.031 53.1738 173.266 53.5065 172.691 54.1719C172.126 54.8281 171.844 55.931 171.844 57.4805C171.844 59.2031 172.131 60.4199 172.705 61.1309C173.288 61.8418 174.068 62.1973 175.043 62.1973C175.772 62.1973 176.369 61.9922 176.834 61.582C177.299 61.1628 177.627 60.4473 177.818 59.4355L181.592 60.0781C181.2 61.8099 180.448 63.1178 179.336 64.002C178.224 64.8861 176.734 65.3281 174.865 65.3281C172.742 65.3281 171.046 64.6582 169.779 63.3184C168.521 61.9785 167.893 60.1237 167.893 57.7539C167.893 55.3568 168.526 53.4928 169.793 52.1621C171.06 50.8223 172.773 50.1523 174.934 50.1523C176.702 50.1523 178.105 50.5352 179.145 51.3008C180.193 52.0573 180.945 53.2148 181.4 54.7734ZM183.438 57.5352C183.438 56.2591 183.752 55.0241 184.381 53.8301C185.01 52.6361 185.898 51.7246 187.047 51.0957C188.204 50.4668 189.494 50.1523 190.916 50.1523C193.113 50.1523 194.913 50.8678 196.316 52.2988C197.72 53.7207 198.422 55.5208 198.422 57.6992C198.422 59.8958 197.711 61.7188 196.289 63.168C194.876 64.6081 193.094 65.3281 190.943 65.3281C189.613 65.3281 188.341 65.0273 187.129 64.4258C185.926 63.8242 185.01 62.9447 184.381 61.7871C183.752 60.6204 183.438 59.2031 183.438 57.5352ZM187.375 57.7402C187.375 59.1803 187.717 60.2832 188.4 61.0488C189.084 61.8145 189.927 62.1973 190.93 62.1973C191.932 62.1973 192.771 61.8145 193.445 61.0488C194.129 60.2832 194.471 59.1712 194.471 57.7129C194.471 56.291 194.129 55.1973 193.445 54.4316C192.771 53.666 191.932 53.2832 190.93 53.2832C189.927 53.2832 189.084 53.666 188.4 54.4316C187.717 55.1973 187.375 56.3001 187.375 57.7402ZM214.76 65H211.191V62.8672C210.599 63.6966 209.897 64.3164 209.086 64.7266C208.284 65.1276 207.473 65.3281 206.652 65.3281C204.984 65.3281 203.553 64.6582 202.359 63.3184C201.174 61.9694 200.582 60.0918 200.582 57.6855C200.582 55.2246 201.161 53.3561 202.318 52.0801C203.476 50.7949 204.939 50.1523 206.707 50.1523C208.329 50.1523 209.733 50.8268 210.918 52.1758V44.957H214.76V65ZM204.506 57.4258C204.506 58.9753 204.72 60.0964 205.148 60.7891C205.768 61.7917 206.634 62.293 207.746 62.293C208.63 62.293 209.382 61.9193 210.002 61.1719C210.622 60.4154 210.932 59.2897 210.932 57.7949C210.932 56.127 210.631 54.9284 210.029 54.1992C209.428 53.4609 208.658 53.0918 207.719 53.0918C206.807 53.0918 206.042 53.4564 205.422 54.1855C204.811 54.9056 204.506 55.9857 204.506 57.4258ZM226.969 60.3789L230.797 61.0215C230.305 62.4251 229.525 63.4961 228.459 64.2344C227.402 64.9635 226.076 65.3281 224.48 65.3281C221.956 65.3281 220.087 64.5033 218.875 62.8535C217.918 61.5319 217.439 59.8639 217.439 57.8496C217.439 55.4434 218.068 53.5612 219.326 52.2031C220.584 50.8359 222.174 50.1523 224.098 50.1523C226.258 50.1523 227.962 50.8678 229.211 52.2988C230.46 53.7207 231.057 55.9036 231.002 58.8477H221.377C221.404 59.987 221.714 60.8757 222.307 61.5137C222.899 62.1426 223.637 62.457 224.521 62.457C225.123 62.457 225.629 62.293 226.039 61.9648C226.449 61.6367 226.759 61.1081 226.969 60.3789ZM227.188 56.4961C227.16 55.3841 226.873 54.541 226.326 53.9668C225.779 53.3835 225.114 53.0918 224.33 53.0918C223.492 53.0918 222.799 53.3971 222.252 54.0078C221.705 54.6185 221.436 55.4479 221.445 56.4961H227.188ZM252.248 65H247.846L246.096 60.4473H238.084L236.43 65H232.137L239.943 44.957H244.223L252.248 65ZM244.797 57.0703L242.035 49.6328L239.328 57.0703H244.797ZM254.408 65V44.957H260.902C263.363 44.957 264.967 45.0573 265.715 45.2578C266.863 45.5586 267.825 46.2148 268.6 47.2266C269.374 48.2292 269.762 49.528 269.762 51.123C269.762 52.3535 269.538 53.388 269.092 54.2266C268.645 55.0651 268.076 55.7259 267.383 56.209C266.699 56.6829 266.002 56.9974 265.291 57.1523C264.325 57.3438 262.926 57.4395 261.094 57.4395H258.455V65H254.408ZM258.455 48.3477V54.0352H260.67C262.265 54.0352 263.331 53.9303 263.869 53.7207C264.407 53.5111 264.826 53.1829 265.127 52.7363C265.437 52.2897 265.592 51.7702 265.592 51.1777C265.592 50.4486 265.378 49.847 264.949 49.373C264.521 48.8991 263.979 48.6029 263.322 48.4844C262.839 48.3932 261.868 48.3477 260.41 48.3477H258.455ZM272.961 65V44.957H277.008V65H272.961Z" fill="#E7E7E7"/>
</g>
<defs>
<clipPath id="clip0_13_3">
<rect width="279" height="110" fill="white"/>
</clipPath>
</defs>
</svg>
